# xmcd
#
# Track frame offsets:
# 150
# 15703
# 27702
# 43351
# 59201
# 77440
# 90802
# 105107
# 120321
# 137186
# 155446
# 167286
# 181064
# 193664
# 211789
# 223660
# 241268
# 263680
# 279237
# 303647
#
# Disc length: 4278 seconds
#
# Revision: 0
# Processed by: cddbd v1.5.2PL0 Copyright (c) Steve Scherf et al.
# Submitted via: CoinsHifi v1.9h contact@coinshifi.com
#
DISCID=0610b414
DTITLE=Various Artist - ROMANTICA
DYEAR=2009
DGENRE=Acoustic
TTITLE0=Muchachita
TTITLE1=Saldre a Buscar el Amor
TTITLE2=Otro Ocupa mi Lugar
TTITLE3=Violinista
TTITLE4=Hoy Tengo Ganas de Ti
TTITLE5=Tu Amante o Tu Enemigo
TTITLE6=Corazon Viajero
TTITLE7=Mientras te Amo
TTITLE8=Yo fui el Segundo en tu Vida
TTITLE9=Una Lagrima por Ti
TTITLE10=Te Acordaras de Mi
TTITLE11=Amor sin Amor
TTITLE12=Amor de Amantes
TTITLE13=Dos Nombres y un Destino
TTITLE14=Muchachita de Ojos Tristes
TTITLE15=Extranjera
TTITLE16=Y Apago la Luz
TTITLE17=Corazon
TTITLE18=Amor Mio se Perder
TTITLE19=Debajo de mi Almohada
EXTD=
EXTT0=Medley
EXTT1=Medley
EXTT2=Medley
EXTT3=Medley
EXTT4=Medley
EXTT5=Medley
EXTT6=Medley
EXTT7=Medley
EXTT8=Medley
EXTT9=Medley
EXTT10=Medley
EXTT11=Medley
EXTT12=Medley
EXTT13=Medley
EXTT14=Medley
EXTT15=Medley
EXTT16=Medley
EXTT17=Medley
EXTT18=Medley
EXTT19=Medley
PLAYORDER=
